<?xml version="1.0" encoding="utf-8" ?>
<svg xmlns="http://www.w3.org/2000/svg" xmlns:xlink="http://www.w3.org/1999/xlink" width="32" height="32">
	<defs>
		<clipPath id="clip_0">
			<rect x="-30" y="-1000" width="750" height="1334" clip-rule="evenodd"/>
		</clipPath>
	</defs>
	<g clip-path="url(#clip_0)">
		<path fill="rgb(255,179,0)" stroke="none" transform="scale(2 2)" d="M14.642 2.20371L8.47122 0.0361645C8.21358 -0.0113648 7.94644 -0.0120681 7.68853 0.0341914L1.36904 2.20568C0.571159 2.35419 0.0042921 2.9346 0.00243219 3.60489L0 10.2751C0 10.6995 0.229127 11.102 0.627791 11.3766L6.87787 15.6651C7.52896 16.1116 8.47709 16.1116 9.12825 15.6651L15.3686 11.3766C15.766 11.103 15.9952 10.7015 15.9952 10.2761L16 3.60292C16.0023 2.93376 15.4382 2.35266 14.642 2.20371ZM7.32647 3.74939C7.32647 3.44979 7.62396 3.20713 7.98965 3.20713L8.01034 3.20713C8.37732 3.20713 8.67352 3.45079 8.67352 3.74939L8.67352 8.99171C8.67352 9.2913 8.37732 9.53405 8.01034 9.53405L7.98965 9.53405C7.81389 9.53426 7.64521 9.47726 7.52076 9.37554C7.39643 9.27382 7.32647 9.1357 7.32647 8.99171L7.32647 3.74939ZM7.2308 11.5773C7.2308 12.0026 7.57544 12.3473 8.00064 12.3473C8.42575 12.3473 8.77048 12.0026 8.77048 11.5773C8.77048 11.1521 8.42575 10.8073 8.00064 10.8073C7.57544 10.8073 7.2308 11.1521 7.2308 11.5773Z" fill-rule="evenodd"/>
	</g>
</svg>
