<?xml version="1.0" encoding="utf-8" ?>
<svg xmlns="http://www.w3.org/2000/svg" xmlns:xlink="http://www.w3.org/1999/xlink" width="64" height="68">
	<defs>
		<clipPath id="clip_0">
			<rect x="-594" y="-586" width="750" height="3676" clip-rule="evenodd"/>
		</clipPath>
	</defs>
	<g clip-path="url(#clip_0)">
		<path fill="rgb(255,68,0)" fill-opacity="0.098039217" stroke="none" transform="scale(2 2)" d="M13.1613 0L13.3215 0Q13.6586 0 13.9934 0.0153428Q14.3283 0.0306856 14.6602 0.0613398Q14.9921 0.0919941 15.3204 0.137897Q15.6487 0.1838 15.9726 0.244859Q16.2966 0.305917 16.6157 0.382007Q16.9347 0.458096 17.2482 0.549061Q17.5616 0.640025 17.8688 0.74568Q18.176 0.851335 18.4763 0.971464Q18.7766 1.09159 19.0695 1.22595Q19.3623 1.36031 19.6471 1.50862Q19.9318 1.65694 20.2079 1.8189Q20.484 1.98087 20.7509 2.15616Q21.0178 2.33145 21.2749 2.5197Q21.532 2.70795 21.7788 2.90879Q22.0256 3.10962 22.2616 3.32262Q22.4977 3.53563 22.7224 3.76037Q22.9471 3.98511 23.1601 4.22113Q23.3731 4.45715 23.574 4.70396Q23.7748 4.95078 23.9631 5.20789Q24.1513 5.46499 24.3266 5.73187Q24.5019 5.99875 24.6639 6.27485Q24.8258 6.55095 24.9741 6.83571Q25.1225 7.12047 25.2568 7.41331Q25.3912 7.70615 25.5113 8.00647Q25.6314 8.30679 25.7371 8.61399Q25.8427 8.92118 25.9337 9.23461Q26.0247 9.54805 26.1008 9.86709Q26.1768 10.1861 26.2379 10.5101Q26.299 10.8341 26.3449 11.1624Q26.3908 11.4907 26.4214 11.8226Q26.4521 12.1545 26.4674 12.4893Q26.4828 12.8242 26.4828 13.1613L26.4828 13.1613Q26.4828 13.4984 26.4674 13.8333Q26.4521 14.1681 26.4214 14.5Q26.3908 14.8319 26.3449 15.1602Q26.299 15.4885 26.2379 15.8125Q26.1768 16.1365 26.1008 16.4555Q26.0247 16.7745 25.9337 17.088Q25.8427 17.4014 25.7371 17.7086Q25.6314 18.0158 25.5113 18.3161Q25.3912 18.6164 25.2568 18.9093Q25.1225 19.2021 24.9741 19.4869Q24.8258 19.7716 24.6639 20.0477Q24.5019 20.3238 24.3266 20.5907Q24.1513 20.8576 23.9631 21.1147Q23.7748 21.3718 23.574 21.6186Q23.3731 21.8654 23.1601 22.1015Q22.9471 22.3375 22.7224 22.5622Q22.4977 22.787 22.2616 23Q22.0256 23.213 21.7788 23.4138Q21.532 23.6146 21.2749 23.8029Q21.0178 23.9911 20.7509 24.1664Q20.484 24.3417 20.2079 24.5037Q19.9318 24.6656 19.6471 24.814Q19.3623 24.9623 19.0695 25.0966Q18.7766 25.231 18.4763 25.3511Q18.176 25.4712 17.8688 25.5769Q17.5616 25.6826 17.2482 25.7735Q16.9347 25.8645 16.6157 25.9406Q16.2966 26.0167 15.9726 26.0777Q15.6487 26.1388 15.3204 26.1847Q14.9921 26.2306 14.6602 26.2612Q14.3283 26.2919 13.9934 26.3072Q13.6586 26.3226 13.3215 26.3226L13.1613 26.3226Q12.8242 26.3226 12.4893 26.3072Q12.1545 26.2919 11.8226 26.2612Q11.4907 26.2306 11.1624 26.1847Q10.8341 26.1388 10.5101 26.0777Q10.1861 26.0167 9.86709 25.9406Q9.54805 25.8645 9.23461 25.7735Q8.92118 25.6826 8.61399 25.5769Q8.30679 25.4713 8.00647 25.3511Q7.70615 25.231 7.41331 25.0966Q7.12047 24.9623 6.83571 24.814Q6.55095 24.6656 6.27485 24.5037Q5.99875 24.3417 5.73187 24.1664Q5.46499 23.9911 5.20789 23.8029Q4.95078 23.6146 4.70396 23.4138Q4.45715 23.213 4.22113 23Q3.98511 22.787 3.76037 22.5622Q3.53563 22.3375 3.32262 22.1015Q3.10962 21.8654 2.90879 21.6186Q2.70795 21.3718 2.5197 21.1147Q2.33145 20.8576 2.15616 20.5907Q1.98087 20.3238 1.8189 20.0477Q1.65694 19.7716 1.50862 19.4869Q1.36031 19.2021 1.22595 18.9093Q1.09159 18.6164 0.971464 18.3161Q0.851335 18.0158 0.74568 17.7086Q0.640025 17.4014 0.549061 17.088Q0.458096 16.7745 0.382007 16.4555Q0.305917 16.1365 0.244859 15.8125Q0.1838 15.4885 0.137897 15.1602Q0.0919941 14.8319 0.0613398 14.5Q0.0306856 14.1681 0.0153428 13.8333Q0 13.4984 0 13.1613L0 13.1613Q0 12.8242 0.0153428 12.4893Q0.0306856 12.1545 0.0613398 11.8226Q0.0919941 11.4907 0.137897 11.1624Q0.1838 10.8341 0.244859 10.5101Q0.305917 10.1861 0.382007 9.86709Q0.458096 9.54805 0.549061 9.23461Q0.640025 8.92118 0.74568 8.61399Q0.851335 8.30679 0.971464 8.00647Q1.09159 7.70615 1.22595 7.41331Q1.36031 7.12047 1.50862 6.83571Q1.65694 6.55095 1.8189 6.27485Q1.98087 5.99875 2.15616 5.73187Q2.33145 5.46499 2.5197 5.20789Q2.70795 4.95078 2.90879 4.70396Q3.10962 4.45715 3.32262 4.22113Q3.53563 3.98511 3.76037 3.76037Q3.98511 3.53563 4.22113 3.32262Q4.45715 3.10962 4.70396 2.90879Q4.95078 2.70795 5.20789 2.5197Q5.46499 2.33145 5.73187 2.15616Q5.99875 1.98087 6.27485 1.8189Q6.55095 1.65694 6.83571 1.50862Q7.12047 1.36031 7.41331 1.22595Q7.70615 1.09159 8.00647 0.971464Q8.30679 0.851335 8.61399 0.74568Q8.92118 0.640025 9.23461 0.549061Q9.54805 0.458096 9.86709 0.382007Q10.1861 0.305917 10.5101 0.244859Q10.8341 0.1838 11.1624 0.137897Q11.4907 0.0919941 11.8226 0.0613398Q12.1545 0.0306856 12.4893 0.0153428Q12.8242 0 13.1613 0L13.3215 0Q13.6586 0 13.9934 0.0153428Q14.3283 0.0306856 14.6602 0.0613398Q14.9921 0.0919941 15.3204 0.137897Q15.6487 0.1838 15.9726 0.244859Q16.2966 0.305917 16.6157 0.382007Q16.9347 0.458096 17.2482 0.549061Q17.5616 0.640025 17.8688 0.74568Q18.176 0.851335 18.4763 0.971464Q18.7766 1.09159 19.0695 1.22595Q19.3623 1.36031 19.6471 1.50862Q19.9318 1.65694 20.2079 1.8189Q20.484 1.98087 20.7509 2.15616Q21.0178 2.33145 21.2749 2.5197Q21.532 2.70795 21.7788 2.90879Q22.0256 3.10962 22.2616 3.32262Q22.4977 3.53563 22.7224 3.76037Q22.9471 3.98511 23.1601 4.22113Q23.3731 4.45715 23.574 4.70396Q23.7748 4.95078 23.9631 5.20789Q24.1513 5.46499 24.3266 5.73187Q24.5019 5.99875 24.6639 6.27485Q24.8258 6.55095 24.9741 6.83571Q25.1225 7.12047 25.2568 7.41331Q25.3912 7.70615 25.5113 8.00647Q25.6314 8.30679 25.7371 8.61399Q25.8427 8.92118 25.9337 9.23461Q26.0247 9.54805 26.1008 9.86709Q26.1768 10.1861 26.2379 10.5101Q26.299 10.8341 26.3449 11.1624Q26.3908 11.4907 26.4214 11.8226Q26.4521 12.1545 26.4674 12.4893Q26.4828 12.8242 26.4828 13.1613L26.4828 13.1613Q26.4828 13.4984 26.4674 13.8333Q26.4521 14.1681 26.4214 14.5Q26.3908 14.8319 26.3449 15.1602Q26.299 15.4885 26.2379 15.8125Q26.1768 16.1365 26.1008 16.4555Q26.0247 16.7745 25.9337 17.088Q25.8427 17.4014 25.7371 17.7086Q25.6314 18.0158 25.5113 18.3161Q25.3912 18.6164 25.2568 18.9093Q25.1225 19.2021 24.9741 19.4869Q24.8258 19.7716 24.6639 20.0477Q24.5019 20.3238 24.3266 20.5907Q24.1513 20.8576 23.9631 21.1147Q23.7748 21.3718 23.574 21.6186Q23.3731 21.8654 23.1601 22.1015Q22.9471 22.3375 22.7224 22.5622Q22.4977 22.787 22.2616 23Q22.0256 23.213 21.7788 23.4138Q21.532 23.6146 21.2749 23.8029Q21.0178 23.9911 20.7509 24.1664Q20.484 24.3417 20.2079 24.5037Q19.9318 24.6656 19.6471 24.814Q19.3623 24.9623 19.0695 25.0966Q18.7766 25.231 18.4763 25.3511Q18.176 25.4712 17.8688 25.5769Q17.5616 25.6826 17.2482 25.7735Q16.9347 25.8645 16.6157 25.9406Q16.2966 26.0167 15.9726 26.0777Q15.6487 26.1388 15.3204 26.1847Q14.9921 26.2306 14.6602 26.2612Q14.3283 26.2919 13.9934 26.3072Q13.6586 26.3226 13.3215 26.3226L13.1613 26.3226Q12.8242 26.3226 12.4893 26.3072Q12.1545 26.2919 11.8226 26.2612Q11.4907 26.2306 11.1624 26.1847Q10.8341 26.1388 10.5101 26.0777Q10.1861 26.0167 9.86709 25.9406Q9.54805 25.8645 9.23461 25.7735Q8.92118 25.6826 8.61399 25.5769Q8.30679 25.4713 8.00647 25.3511Q7.70615 25.231 7.41331 25.0966Q7.12047 24.9623 6.83571 24.814Q6.55095 24.6656 6.27485 24.5037Q5.99875 24.3417 5.73187 24.1664Q5.46499 23.9911 5.20789 23.8029Q4.95078 23.6146 4.70396 23.4138Q4.45715 23.213 4.22113 23Q3.98511 22.787 3.76037 22.5622Q3.53563 22.3375 3.32262 22.1015Q3.10962 21.8654 2.90879 21.6186Q2.70795 21.3718 2.5197 21.1147Q2.33145 20.8576 2.15616 20.5907Q1.98087 20.3238 1.8189 20.0477Q1.65694 19.7716 1.50862 19.4869Q1.36031 19.2021 1.22595 18.9093Q1.09159 18.6164 0.971464 18.3161Q0.851335 18.0158 0.74568 17.7086Q0.640025 17.4014 0.549061 17.088Q0.458096 16.7745 0.382007 16.4555Q0.305917 16.1365 0.244859 15.8125Q0.1838 15.4885 0.137897 15.1602Q0.0919941 14.8319 0.0613398 14.5Q0.0306856 14.1681 0.0153428 13.8333Q0 13.4984 0 13.1613L0 13.1613Q0 12.8242 0.0153428 12.4893Q0.0306856 12.1545 0.0613398 11.8226Q0.0919941 11.4907 0.137897 11.1624Q0.1838 10.8341 0.244859 10.5101Q0.305917 10.1861 0.382007 9.86709Q0.458096 9.54805 0.549061 9.23461Q0.640025 8.92118 0.74568 8.61399Q0.851335 8.30679 0.971464 8.00647Q1.09159 7.70615 1.22595 7.41331Q1.36031 7.12047 1.50862 6.83571Q1.65694 6.55095 1.8189 6.27485Q1.98087 5.99875 2.15616 5.73187Q2.33145 5.46499 2.5197 5.20789Q2.70795 4.95078 2.90879 4.70396Q3.10962 4.45715 3.32262 4.22113Q3.53563 3.98511 3.76037 3.76037Q3.98511 3.53563 4.22113 3.32262Q4.45715 3.10962 4.70396 2.90879Q4.95078 2.70795 5.20789 2.5197Q5.46499 2.33145 5.73187 2.15616Q5.99875 1.98087 6.27485 1.8189Q6.55095 1.65694 6.83571 1.50862Q7.12047 1.36031 7.41331 1.22595Q7.70615 1.09159 8.00647 0.971464Q8.30679 0.851335 8.61399 0.74568Q8.92118 0.640025 9.23461 0.549061Q9.54805 0.458096 9.86709 0.382007Q10.1861 0.305917 10.5101 0.244859Q10.8341 0.1838 11.1624 0.137897Q11.4907 0.0919941 11.8226 0.0613398Q12.1545 0.0306856 12.4893 0.0153428Q12.8242 0 13.1613 0Z"/>
	</g>
	<defs>
		<clipPath id="clip_1">
			<path d="M64 39.4838C64 55.2329 51.1552 68 35.3104 68C19.4655 68 6.62073 55.2329 6.62073 39.4838C6.62073 23.7348 19.4655 10.9677 35.3104 10.9677C51.1552 10.9677 64 23.7348 64 39.4838Z" clip-rule="evenodd"/>
		</clipPath>
	</defs>
	<g clip-path="url(#clip_1)">
		<path fill="none" stroke="rgb(25,136,255)" stroke-width="4.4000001" stroke-miterlimit="4" transform="matrix(2 0 0 2 6.62073 10.9677)" d="M14.3448 28.5161C22.2673 28.5161 28.6897 22.1326 28.6897 14.2581C28.6897 6.38355 22.2673 0 14.3448 0C6.4224 0 0 6.38355 0 14.2581C0 22.1326 6.4224 28.5161 14.3448 28.5161C22.2673 28.5161 28.6897 22.1326 28.6897 14.2581C28.6897 6.38355 22.2673 0 14.3448 0C6.4224 0 0 6.38355 0 14.2581C0 22.1326 6.4224 28.5161 14.3448 28.5161Z"/>
	</g>
	<defs>
		<clipPath id="clip_2">
			<rect x="-594" y="-586" width="750" height="3676" clip-rule="evenodd"/>
		</clipPath>
	</defs>
	<g clip-path="url(#clip_2)">
		<path fill="rgb(255,91,62)" stroke="none" transform="matrix(2 0 0 2 25.7472 26.1763)" d="M4.78161 4.75269L2.29957 0L0 0L2.48204 4.75269L0 4.75269L0 6.94624L3.82529 6.94624L3.82529 8.55484L0 8.55484L0 10.7484L3.82529 10.7484L3.82529 13.3075L6.03218 13.3075L6.03218 10.7484L9.56322 10.7484L9.56322 8.55484L6.03218 8.55484L6.03218 6.94624L9.56322 6.94624L9.56322 4.75269L7.08118 4.75269L9.56322 0L7.26364 0L4.78161 4.75269Z" fill-rule="evenodd"/>
	</g>
</svg>
