<?xml version="1.0" encoding="utf-8" ?>
<svg xmlns="http://www.w3.org/2000/svg" xmlns:xlink="http://www.w3.org/1999/xlink" width="34" height="33">
	<defs>
		<clipPath id="clip_0">
			<rect x="-28.739746" y="-878.82001" width="738.75" height="1313.99" clip-rule="evenodd"/>
		</clipPath>
	</defs>
	<g clip-path="url(#clip_0)">
		<path fill="rgb(255,94,94)" stroke="none" transform="matrix(1.97 0 0 1.97 0.810059 1.77002)" d="M11.2463 0.255686L15.6765 5.28963Q15.7471 5.36982 15.8021 5.46139Q15.8571 5.55296 15.8948 5.65293Q15.9325 5.7529 15.9516 5.85802Q15.9706 5.96313 15.9705 6.06997Q15.9704 6.1768 15.9511 6.28188Q15.9319 6.38696 15.894 6.48685Q15.8561 6.58675 15.8009 6.67822Q15.7457 6.76969 15.675 6.84975L13.8151 8.95505L8.69921 14.7456Q8.55658 14.9071 8.37869 14.9934Q8.2008 15.0797 8.01063 15.0797Q7.82046 15.0797 7.64257 14.9934Q7.46468 14.9071 7.32205 14.7456L0.323757 6.82436Q0.253028 6.74431 0.197862 6.65286Q0.142696 6.56142 0.104889 6.46157Q0.0670828 6.36172 0.0478668 6.25672Q0.0286507 6.15171 0.0286506 6.04497Q0.0286506 5.93822 0.0478665 5.83322Q0.0670825 5.72821 0.104889 5.62836Q0.142695 5.52851 0.197861 5.43707Q0.253027 5.34563 0.323756 5.26557L4.75105 0.254366Q4.89368 0.0929263 5.07157 0.00663296Q5.24946 -0.0796604 5.43963 -0.0796604Q5.62981 -0.0796604 5.80769 0.00663296Q5.98558 0.0929263 6.12821 0.254366L7.32205 1.60566Q7.46468 1.7671 7.64232 1.85317Q7.81996 1.93925 8.00966 1.93883Q8.19937 1.93842 8.37663 1.85158Q8.55389 1.76473 8.69582 1.60267L9.87401 0.257352Q10.0159 0.0952933 10.1931 0.00854648Q10.3702 -0.0782004 10.5597 -0.0784304Q10.7492 -0.0786605 10.9266 0.00765593Q11.104 0.0939724 11.2463 0.255686ZM5.43963 3.07134L2.8125 6.04497L3.78924 7.09972L6.37149 4.17692L5.43963 3.07134ZM13.1864 6.07034L10.5592 3.09672L9.59363 4.17692L12.2208 7.09972L13.1864 6.07034ZM8.01063 11.9922L5.38348 8.95505L8.01063 5.98143L10.6378 8.95505L8.01063 11.9922Z" fill-rule="evenodd"/>
	</g>
</svg>
