<?xml version="1.0" encoding="utf-8" ?>
<svg xmlns="http://www.w3.org/2000/svg" xmlns:xlink="http://www.w3.org/1999/xlink" width="44" height="44">
	<defs>
		<clipPath id="clip_0">
			<rect width="44" height="44" clip-rule="evenodd"/>
		</clipPath>
	</defs>
	<g clip-path="url(#clip_0)">
		<path stroke="none" transform="scale(2 2)" d="M12.305 21.2472C12.305 21.6627 12.6253 22 13.0198 22L18.7147 22C19.1093 22 19.4294 21.6627 19.4294 21.2443L19.4294 12.3346L21.2849 12.3346C21.5736 12.3346 21.8338 12.151 21.9454 11.8709C22.0569 11.591 21.9939 11.2657 21.791 11.052L11.5074 0.221309C11.2272 -0.0737698 10.7755 -0.0737698 10.4954 0.221309L0.209001 11.0549C0.00601862 11.2687 -0.0568059 11.5939 0.0545843 11.874C0.166117 12.1541 0.42635 12.3377 0.715028 12.3377L2.57053 12.3377L2.57053 21.2472C2.57053 21.6627 2.89076 22 3.28526 22L8.98017 22C9.37466 22 9.69489 21.6627 9.69489 21.2472L9.69489 16.9717L12.305 16.9717L12.305 21.2472ZM18.7147 10.8322C18.3202 10.8322 18 11.1695 18 11.5849L18 20.4945L13.7345 20.4945L13.7345 16.2189C13.7345 15.8033 13.4143 15.4662 13.0198 15.4662L8.98017 15.4662C8.58567 15.4662 8.26544 15.8033 8.26544 16.2189L8.26544 20.4945L3.99998 20.4945L3.99998 11.5849C3.99998 11.1695 3.67975 10.8322 3.28526 10.8322L2.43902 10.8322L10.9986 1.81722L15.6356 6.69807L19.5609 10.8322L18.7147 10.8322Z" fill-rule="evenodd"/>
	</g>
</svg>
