<?xml version="1.0" standalone="no"?><!DOCTYPE svg PUBLIC "-//W3C//DTD SVG 1.1//EN" "http://www.w3.org/Graphics/SVG/1.1/DTD/svg11.dtd"><svg t="1526545291414" class="icon" style="" viewBox="0 0 1024 1024" version="1.1" xmlns="http://www.w3.org/2000/svg" p-id="1876" xmlns:xlink="http://www.w3.org/1999/xlink" width="200" height="200"><defs><style type="text/css"></style></defs><path d="M613.47328 1021.09184H410.53184c-192.50176 0-344.54016 0-344.54016-99.84v-19.97312c0-187.12064 154.57792-339.33312 344.54016-339.33312h202.94144c189.96224 0 344.54528 152.21248 344.54528 339.33312v19.97312c-0.04096 99.84-159.7184 99.84-344.54528 99.84z m-202.97728-399.30368c-156.94336 0-284.6464 125.34784-284.6464 279.4496v19.968c0 39.9616 164.5056 39.9616 284.6464 39.9616h202.94656c99.456 0 284.65664 0 284.65664-39.9616v-19.968c0-154.10176-127.71328-279.4496-284.65664-279.4496H410.496z m91.34592-79.87712c-150.8352 0-273.4848-120.90368-273.4848-269.52192C228.35712 123.78112 351.01696 2.90816 501.84192 2.90816s273.47968 120.86784 273.47968 269.48096c0 148.61824-122.68032 269.52192-273.47968 269.52192zM288.24576 272.38912c0 115.56352 95.81568 209.62816 213.59104 209.62816 117.7856 0 213.60128-94.03392 213.60128-209.62816 0-115.59936-95.8208-209.59744-213.60128-209.59744-117.77024 0.00512-213.59104 94.03904-213.59104 209.59744z" p-id="1877"></path></svg>