<?xml version="1.0" encoding="utf-8" ?>
<svg xmlns="http://www.w3.org/2000/svg" xmlns:xlink="http://www.w3.org/1999/xlink" width="40" height="44">
	<defs>
		<clipPath id="clip_0">
			<rect x="-346.14996" y="-3499.7" width="731.25" height="3584.1001" clip-rule="evenodd"/>
		</clipPath>
	</defs>
	<g clip-path="url(#clip_0)">
		<path stroke="none" transform="matrix(1.95 0 0 1.95 0.950073 0.626709)" d="M19.1528 3.98275L10.3259 0.0667741C10.076 -0.022258 9.90948 -0.022258 9.65969 0.0667741L0.832781 3.98275C0.666199 4.07178 0.666199 4.16078 0.582921 4.24979C0.499618 4.51672 0.582921 4.78376 0.832781 4.8728L9.65969 8.7888C9.90948 8.87769 10.1593 8.87769 10.3259 8.7888L19.1528 4.8728C19.3194 4.78376 19.3194 4.69476 19.4027 4.60575C19.4859 4.33871 19.4027 4.07178 19.1528 3.98275ZM3 4.42772L9.99995 1.56345L17 4.42772L9.99995 7.29199L3 4.42772ZM8.66046 10.3907L0.582922 6.47472L0.416341 6.47472C0.166582 6.47472 0 6.65276 0 6.91969L0 17.2436C0 17.5997 0.166582 17.8666 0.499619 18.0447L8.57718 21.9607L8.74363 21.9607C8.99352 21.9607 9.16008 21.7826 9.16008 21.5157L9.16008 11.1917C9.16008 10.8357 8.99352 10.5688 8.66046 10.3907ZM11.3252 10.3907L19.4027 6.47472L19.5692 6.47472C19.819 6.47472 19.9856 6.65276 19.9856 6.91969L19.9856 17.2436C19.9856 17.5997 19.819 17.8666 19.4859 18.0447L11.4084 21.9607L11.2419 21.9607C10.9921 21.9607 10.8255 21.7826 10.8255 21.5157L10.8255 11.1917C10.8255 10.8357 10.9921 10.5688 11.3252 10.3907ZM18.66 16.901L12.151 20.0812L12.151 11.5345L18.66 8.35421L18.66 16.901ZM1.4127 16.829L7.74727 19.924L7.74727 11.6064L1.4127 8.51136L1.4127 16.829Z" fill-rule="evenodd"/>
	</g>
</svg>
